<svg width="100" height="100" viewBox="0 0 100 100" fill="none" xmlns="http://www.w3.org/2000/svg">
<mask id="mask0_40_46" style="mask-type:alpha" maskUnits="userSpaceOnUse" x="0" y="0" width="100" height="100">
<rect width="100" height="100" fill="#D9D9D9"/>
</mask>
<g mask="url(#mask0_40_46)">
<path d="M45.5 49.5389V62.7761C45.5 63.9482 45.8993 64.9306 46.6979 65.7235C47.4965 66.5163 48.4861 66.9127 49.6667 66.9127C50.8472 66.9127 51.8368 66.5163 52.6354 65.7235C53.434 64.9306 53.8333 63.9482 53.8333 62.7761V49.5389L57.5833 53.2619C58.3472 54.0203 59.3194 54.3994 60.5 54.3994C61.6806 54.3994 62.6528 54.0203 63.4167 53.2619C64.1806 52.5035 64.5625 51.5383 64.5625 50.3662C64.5625 49.1942 64.1806 48.229 63.4167 47.4706L52.5833 36.7154C51.75 35.8881 50.7778 35.4744 49.6667 35.4744C48.5556 35.4744 47.5833 35.8881 46.75 36.7154L35.9167 47.4706C35.1528 48.229 34.7708 49.1942 34.7708 50.3662C34.7708 51.5383 35.1528 52.5035 35.9167 53.2619C36.6806 54.0203 37.6528 54.3994 38.8333 54.3994C40.0139 54.3994 40.9861 54.0203 41.75 53.2619L45.5 49.5389ZM49.6667 91.7325C43.9028 91.7325 38.4861 90.6466 33.4167 88.4749C28.3472 86.3032 23.9375 83.3558 20.1875 79.6329C16.4375 75.9099 13.4688 71.532 11.2812 66.4991C9.09375 61.4662 8 56.0886 8 50.3662C8 44.6439 9.09375 39.2663 11.2812 34.2334C13.4688 29.2005 16.4375 24.8226 20.1875 21.0996C23.9375 17.3767 28.3472 14.4293 33.4167 12.2576C38.4861 10.0859 43.9028 9 49.6667 9C55.4306 9 60.8472 10.0859 65.9167 12.2576C70.9861 14.4293 75.3958 17.3767 79.1458 21.0996C82.8958 24.8226 85.8646 29.2005 88.0521 34.2334C90.2396 39.2663 91.3333 44.6439 91.3333 50.3662C91.3333 56.0886 90.2396 61.4662 88.0521 66.4991C85.8646 71.532 82.8958 75.9099 79.1458 79.6329C75.3958 83.3558 70.9861 86.3032 65.9167 88.4749C60.8472 90.6466 55.4306 91.7325 49.6667 91.7325ZM49.6667 83.4592C58.9722 83.4592 66.8542 80.2533 73.3125 73.8416C79.7708 67.4298 83 59.6047 83 50.3662C83 41.1278 79.7708 33.3027 73.3125 26.8909C66.8542 20.4791 58.9722 17.2732 49.6667 17.2732C40.3611 17.2732 32.4792 20.4791 26.0208 26.8909C19.5625 33.3027 16.3333 41.1278 16.3333 50.3662C16.3333 59.6047 19.5625 67.4298 26.0208 73.8416C32.4792 80.2533 40.3611 83.4592 49.6667 83.4592Z" fill="#583101"/>
</g>
</svg>
