<svg width="140" height="140" viewBox="0 0 140 140" fill="none" xmlns="http://www.w3.org/2000/svg">
<g style="mix-blend-mode:multiply">
<mask id="mask0_14_103" style="mask-type:alpha" maskUnits="userSpaceOnUse" x="0" y="0" width="140" height="140">
<rect width="140" height="140" fill="#D9D9D9"/>
</mask>
<g mask="url(#mask0_14_103)">
<path d="M114.992 70.5372L72.1169 25.248C70.6586 23.7075 69.9537 21.8846 70.0023 19.7794C70.051 17.6741 70.8044 15.8512 72.2628 14.3108C73.7211 12.7703 75.4468 12.0001 77.4398 12.0001C79.4329 12.0001 81.1586 12.7703 82.6169 14.3108L127.388 61.7566C128.554 62.989 129.429 64.3754 130.013 65.9158C130.596 67.4563 130.888 68.9967 130.888 70.5372C130.888 72.0776 130.596 73.6181 130.013 75.1585C129.429 76.699 128.554 78.0854 127.388 79.3177L82.4711 126.764C81.0128 128.304 79.3114 129.049 77.3669 128.997C75.4225 128.946 73.7211 128.15 72.2628 126.61C70.8044 125.069 70.0753 123.246 70.0753 121.141C70.0753 119.036 70.8044 117.213 72.2628 115.672L114.992 70.5372Z" fill="#583101"/>
</g>
</g>
</svg>
