<svg width="140" height="140" viewBox="0 0 140 140" fill="none" xmlns="http://www.w3.org/2000/svg">
<g style="mix-blend-mode:multiply">
<mask id="mask0_14_78" style="mask-type:alpha" maskUnits="userSpaceOnUse" x="0" y="0" width="140" height="140">
<rect width="140" height="140" fill="#D9D9D9"/>
</mask>
<g mask="url(#mask0_14_78)">
<path d="M24.8958 70.4626L67.7708 115.752C69.2292 117.292 69.934 119.089 69.8854 121.143C69.8368 123.197 69.0833 124.994 67.625 126.535C66.1667 128.075 64.4653 128.846 62.5208 128.846C60.5764 128.846 58.875 128.075 57.4167 126.535L12.5 79.2431C11.3333 78.0108 10.4583 76.6243 9.875 75.0839C9.29167 73.5435 9 72.003 9 70.4626C9 68.9221 9.29167 67.3817 9.875 65.8412C10.4583 64.3008 11.3333 62.9143 12.5 61.682L57.4167 14.2361C58.875 12.6957 60.6007 11.9511 62.5938 12.0025C64.5868 12.0538 66.3125 12.8497 67.7708 14.3902C69.2292 15.9306 69.9583 17.7278 69.9583 19.7818C69.9583 21.8357 69.2292 23.6329 67.7708 25.1733L24.8958 70.4626Z" fill="#583101"/>
</g>
</g>
</svg>
