<svg width="50" height="50" viewBox="0 0 50 50" fill="none" xmlns="http://www.w3.org/2000/svg">
<mask id="mask0_125_105" style="mask-type:alpha" maskUnits="userSpaceOnUse" x="0" y="0" width="50" height="50">
<rect width="50" height="50" fill="#D9D9D9"/>
</mask>
<g mask="url(#mask0_125_105)">
<path d="M24.9999 27.9167L14.7916 38.125C14.4096 38.5069 13.9235 38.6979 13.3333 38.6979C12.743 38.6979 12.2569 38.5069 11.8749 38.125C11.493 37.7431 11.302 37.2569 11.302 36.6667C11.302 36.0764 11.493 35.5903 11.8749 35.2083L22.0833 25L11.8749 14.7917C11.493 14.4097 11.302 13.9236 11.302 13.3333C11.302 12.7431 11.493 12.2569 11.8749 11.875C12.2569 11.4931 12.743 11.3021 13.3333 11.3021C13.9235 11.3021 14.4096 11.4931 14.7916 11.875L24.9999 22.0833L35.2083 11.875C35.5902 11.4931 36.0763 11.3021 36.6666 11.3021C37.2569 11.3021 37.743 11.4931 38.1249 11.875C38.5069 12.2569 38.6978 12.7431 38.6978 13.3333C38.6978 13.9236 38.5069 14.4097 38.1249 14.7917L27.9166 25L38.1249 35.2083C38.5069 35.5903 38.6978 36.0764 38.6978 36.6667C38.6978 37.2569 38.5069 37.7431 38.1249 38.125C37.743 38.5069 37.2569 38.6979 36.6666 38.6979C36.0763 38.6979 35.5902 38.5069 35.2083 38.125L24.9999 27.9167Z" fill="#FFEDD8"/>
</g>
</svg>
