<?xml version="1.0" encoding="UTF-8"?><svg id="Ebene_1" xmlns="http://www.w3.org/2000/svg" viewBox="0 0 153.07 102.05"><defs><style>.cls-1{fill:#fff;}.cls-2{fill:#99bb30;}</style></defs><rect class="cls-2" width="153.07" height="102.05"/><path class="cls-1" d="m59.61,23.57c1.63.13,2.44.21,4.04.41.52.07,1.01-.16,1.1-.51.28-1.08.42-1.62.69-2.7.09-.35.35-.32.57.08.7,1.21,1.05,1.82,1.72,3.05.22.4.82.79,1.32.89,1.5.3,2.04.44,3.85.92.5.13.58.36.22.49-1.11.39-1.69.49-2.84.96-.37.15-.5.6-.3,1.01.62,1.24.91,1.9,1.48,3.22.19.43.01.48-.4.12-1.26-1.11-1.91-1.52-3.23-2.45-.44-.31-1.1-.42-1.47-.26-1.13.49-1.69.83-2.83,1.35-.38.17-.6.03-.5-.31.3-1.05.44-1.67.73-2.71.09-.34-.2-.85-.66-1.12-1.42-.84-2.14-1.25-3.59-2.03-.47-.26-.43-.43.1-.39"/><path class="cls-1" d="m43.69,35.22c1.95-.41,2.55-.5,4.39-.77.55-.08,1.11-.41,1.24-.77.4-1.12.59-1.68.98-2.79.13-.36.4-.37.6-.04.64,1.04.95,1.57,1.56,2.63.2.34.8.65,1.32.62,1.73-.1,2.13-.21,3.89-.29.51-.03.57.17.21.41-1.35.88-1.76,1.23-2.96,1.95-.38.23-.57.66-.38,1.02.58,1.08.87,1.63,1.43,2.76.19.37-.01.47-.45.23-1.31-.74-1.98-1.08-3.34-1.7-.45-.21-1.16-.18-1.58.07-1.26.75-1.69,1.03-3.38,2.09-.47.29-.7.25-.53-.2.55-1.41.74-1.75,1.19-2.88.15-.37-.14-.8-.61-.95-1.47-.45-2.22-.64-3.76-.96-.5-.1-.43-.3.16-.43"/><path class="cls-1" d="m35.28,49.99c1.78-.15,2.64-.18,4.29-.18.54,0,1.19-.29,1.46-.66.84-1.13,1.25-1.69,2.06-2.8.26-.36.52-.34.57.03.15,1.16.23,1.75.35,2.93.04.38.48.73.96.79,1.68.23,1.94.28,3.63.59.46.09.47.29.03.44-1.35.45-2.04.7-3.46,1.25-.46.18-.87.65-.86,1.04,0,1.2,0,1.8,0,3.02,0,.4-.25.49-.54.21-.89-.86-1.35-1.28-2.32-2.09-.32-.26-1-.29-1.5-.08-1.55.67-2.34,1.03-3.93,1.78-.52.25-.71.14-.39-.25.94-1.18,1.41-1.76,2.33-2.92.31-.38.26-.88-.09-1.1-1.12-.68-1.69-1-2.92-1.58-.4-.18-.24-.38.33-.42"/><path class="cls-1" d="m63.85,69.68c-1.17.67-1.81,1.1-3.05,1.98-.4.28-.65.89-.55,1.35.31,1.4.46,2.12.76,3.61.1.49-.11.65-.46.35-1.07-.92-1.6-1.35-2.67-2.19-.35-.28-.98-.25-1.4.08-1.26.97-1.9,1.48-3.18,2.51-.42.34-.6.2-.4-.3.61-1.53.91-2.28,1.49-3.73.19-.48.06-1.07-.31-1.31-1.12-.75-1.68-1.11-2.82-1.79-.37-.22-.27-.45.21-.51,1.5-.19,2.25-.26,3.72-.38.48-.04,1.02-.43,1.2-.87.56-1.38.84-2.05,1.38-3.35.18-.42.41-.43.52-.02.34,1.26.51,1.9.85,3.22.11.43.58.77,1.04.76,1.44-.03,2.16-.06,3.56.1.46.05.5.28.12.5"/><path class="cls-1" d="m83.06,71.85c-1.03.34-1.54.52-2.58.89-.34.12-.5.56-.35.98.46,1.27.69,1.9,1.17,3.17.16.42-.01.49-.39.16-1.13-1-1.68-1.51-2.77-2.54-.36-.34-.94-.5-1.29-.35-1.06.45-1.59.68-2.68,1.19-.36.17-.54,0-.41-.39.42-1.15.62-1.71,1.02-2.79.13-.36-.05-.93-.4-1.27-1.07-1.06-1.6-1.6-2.64-2.66-.34-.35-.27-.52.15-.39,1.31.41,1.96.62,3.26,1.04.42.14.86-.03.99-.36.38-1.03.57-1.53.93-2.52.12-.31.32-.24.46.17.42,1.25.63,1.89,1.06,3.16.14.41.6.86,1.02,1,1.31.43,1.96.64,3.28,1.07.42.14.5.34.17.45"/><path class="cls-1" d="m100.29,66.76c-1.15.44-1.68.67-2.8,1.1-.36.14-.5.58-.3.98.59,1.22.89,1.83,1.52,3.03.2.39.02.48-.41.17-1.3-.93-1.94-1.39-3.18-2.5-.41-.37-1.02-.58-1.37-.47-1.06.34-1.59.5-2.64.85-.35.11-.55-.08-.45-.42.32-1.04.48-1.55.79-2.57.11-.34-.13-.91-.51-1.29-1.19-1.16-1.78-1.76-2.93-2.93-.37-.38-.32-.54.13-.37,1.37.56,2.05.84,3.44,1.37.45.17.91.05,1.02-.28.33-1.02.5-1.52.85-2.53.11-.33.33-.24.5.18.51,1.32.77,1.98,1.31,3.3.18.43.69.9,1.16,1.06,1.43.48,2.18.57,3.68.87.48.09.57.28.21.43"/><path class="cls-1" d="m111.54,55.31c-1.1.76-1.63,1.12-2.7,1.76-.34.21-.49.64-.34.96.48.97.72,1.44,1.21,2.38.17.31,0,.4-.38.2-1.12-.6-1.67-.93-2.76-1.63-.36-.23-.91-.3-1.24-.16-.99.45-1.47.66-2.43,1.07-.32.14-.49,0-.39-.29.31-.89.46-1.34.79-2.24.1-.3-.09-.75-.43-1.02-1.05-.83-1.56-1.31-2.57-2.2-.33-.29-.28-.44.12-.35,1.22.3,1.84.44,3.11.65.41.07.84-.16.95-.49.35-1.05.53-1.58.9-2.68.12-.35.33-.33.46.04.42,1.16.65,1.73,1.08,2.88.14.37.61.7,1.04.72,1.33.06,2.01.07,3.4-.01.45-.02.52.16.17.41"/><path class="cls-1" d="m120.66,37.96c-1.05,1.1-1.58,1.64-2.63,2.69-.34.33-.52.86-.41,1.17.36.92.54,1.38.92,2.26.12.29-.05.46-.38.38-1.02-.25-1.52-.4-2.49-.75-.32-.12-.85.04-1.18.35-1.01.93-1.54,1.38-2.47,2.21-.3.27-.46.19-.35-.17.34-1.09.6-1.68,1.01-2.83.14-.38,0-.81-.31-.95-.93-.46-1.39-.71-2.29-1.24-.29-.17-.22-.36.15-.41,1.16-.19,1.75-.3,2.95-.59.39-.1.82-.5.96-.9.43-1.23.64-1.85,1.08-3.11.14-.41.34-.47.44-.13.3,1.05.46,1.56.79,2.56.11.32.53.48.93.34,1.25-.43,1.88-.67,3.16-1.21.42-.17.48-.02.13.33"/><path class="cls-1" d="m100.82,26.54c1.08.09,1.5.07,2.76.02.37-.01.75-.33.85-.72.31-1.19.47-1.81.8-3.09.11-.41.29-.44.41-.05.37,1.19.56,1.75.94,2.87.12.36.52.58.89.58,1.01,0,1.65-.03,2.91-.1.38-.02.46.13.14.39-.93.73-1.41.98-2.32,1.71-.31.25-.43.76-.31,1.1.38,1.02.57,1.52.96,2.5.13.32-.02.45-.32.28-.93-.5-1.39-.76-2.32-1.31-.3-.18-.79-.13-1.07.11-.86.72-1.29,1.07-2.13,1.72-.27.21-.43.09-.34-.24.27-.98.41-1.5.7-2.57.1-.35-.08-.79-.38-1-.94-.68-1.39-1.06-2.29-1.82-.3-.25-.25-.42.11-.39"/><path class="cls-1" d="m80.8,22.68c1.27.36,1.9.55,3.16.91.41.12.84-.05.94-.37.34-1.01.51-1.52.87-2.58.11-.34.33-.29.47.11.43,1.26.64,1.89,1.05,3.14.13.4.57.83.97.95,1.26.37,1.89.54,3.14.9.41.12.47.32.13.46-1.03.42-1.53.62-2.53,1-.32.12-.48.54-.36.94.38,1.21.56,1.8.94,2.98.12.39-.04.44-.36.12-.96-.98-1.44-1.47-2.42-2.45-.32-.32-.84-.5-1.16-.39-.95.32-1.41.47-2.35.76-.3.1-.47-.06-.37-.36.31-.89.47-1.34.79-2.26.11-.3-.08-.81-.41-1.12-1.04-.97-1.57-1.45-2.64-2.38-.35-.31-.3-.46.11-.34"/><path class="cls-1" d="m130.56,21.92c-.92.84-1.41,1.28-2.4,2.18-.32.3-.5.75-.39.99.34.75.52,1.12.89,1.81.12.23-.04.39-.37.35-.99-.11-1.48-.19-2.44-.38-.32-.06-.85.14-1.19.45-1.03.95-1.55,1.43-2.61,2.38-.35.31-.51.27-.36-.09.46-1.09.7-1.65,1.15-2.74.15-.36.03-.73-.28-.83-.93-.29-1.39-.45-2.29-.81-.29-.12-.21-.3.18-.42,1.2-.34,1.81-.53,3.01-.9.39-.12.83-.52.98-.88.46-1.13.69-1.69,1.13-2.82.15-.36.33-.41.42-.11.25.91.39,1.36.68,2.21.09.28.48.39.87.27,1.18-.39,1.76-.58,2.89-.95.37-.12.42,0,.12.27"/><path class="cls-1" d="m89.73,41.94c.67-.18.77-.52-.03-.48-1.37.07-17.31,3.74-31.12,11.8-15.03,8.77-19.58,13.14-22.79,15.63-.85.66-1.48.67-1.63.27-.51-1.37-.83-2.15-1.25-3.43-.13-.39-.5-.35-.66.2-.56,1.86-.83,2.99-1.38,4.66-.17.54-.36,1.13-1.36,1.82-1.97,1.37-2.38,1.64-3.61,2.48-.45.3-.68.64.21.8.86.16,1.03.19,2.18.4.92.17.62.79.49,1.34-.38,1.55-.54,2.18-1.04,3.78-.17.52.05.59.48.15,1.31-1.37,1.74-1.83,3.13-3.28.52-.54,1.01-1.17,1.56-1.07,1.36.24,1.52.29,3.42.64.84.16.84-.23.61-.78-.65-1.61-.53-1.4-1.02-2.76-.16-.44-.19-1.25.31-1.73,7.92-7.71,11.2-10.22,22.08-17.32,8.53-5.56,19.86-9.98,31.42-13.1Z"/></svg>