<svg width="96" height="96" viewBox="0 0 96 96" fill="none" xmlns="http://www.w3.org/2000/svg">
<path d="M30.2222 8C17.9689 8 8 17.9689 8 30.2222V65.7778C8 78.0311 17.9689 88 30.2222 88H65.7778C78.0311 88 88 78.0311 88 65.7778V30.2222C88 17.9689 78.0311 8 65.7778 8H30.2222ZM30.2222 16.8889H65.7778C73.1289 16.8889 79.1111 22.8711 79.1111 30.2222V65.7778C79.1111 73.1289 73.1289 79.1111 65.7778 79.1111H30.2222C22.8711 79.1111 16.8889 73.1289 16.8889 65.7778V30.2222C16.8889 22.8711 22.8711 16.8889 30.2222 16.8889ZM70.2222 21.3333C69.0435 21.3333 67.913 21.8016 67.0795 22.6351C66.246 23.4686 65.7778 24.599 65.7778 25.7778C65.7778 26.9565 66.246 28.087 67.0795 28.9205C67.913 29.754 69.0435 30.2222 70.2222 30.2222C71.401 30.2222 72.5314 29.754 73.3649 28.9205C74.1984 28.087 74.6667 26.9565 74.6667 25.7778C74.6667 24.599 74.1984 23.4686 73.3649 22.6351C72.5314 21.8016 71.401 21.3333 70.2222 21.3333ZM48 25.7778C35.7467 25.7778 25.7778 35.7467 25.7778 48C25.7778 60.2533 35.7467 70.2222 48 70.2222C60.2533 70.2222 70.2222 60.2533 70.2222 48C70.2222 35.7467 60.2533 25.7778 48 25.7778ZM48 34.6667C55.3511 34.6667 61.3333 40.6489 61.3333 48C61.3333 55.3511 55.3511 61.3333 48 61.3333C40.6489 61.3333 34.6667 55.3511 34.6667 48C34.6667 40.6489 40.6489 34.6667 48 34.6667Z" fill="#583101"/>
</svg>
