<svg width="124" height="124" viewBox="0 0 124 124" fill="none" xmlns="http://www.w3.org/2000/svg">
<mask id="mask0_14_159" style="mask-type:alpha" maskUnits="userSpaceOnUse" x="0" y="0" width="124" height="124">
<rect width="124" height="124" fill="#D9D9D9"/>
</mask>
<g mask="url(#mask0_14_159)">
<path d="M62 83.5706L82.15 63.5498C83.0972 62.6025 84.2812 62.1074 85.7021 62.0644C87.1229 62.0213 88.35 62.5164 89.3833 63.5498C90.3305 64.497 90.8042 65.7025 90.8042 67.1664C90.8042 68.6303 90.3305 69.8359 89.3833 70.7831L65.6167 94.5498C65.1 95.0664 64.5403 95.4324 63.9375 95.6477C63.3347 95.863 62.6889 95.9706 62 95.9706C61.3111 95.9706 60.6653 95.863 60.0625 95.6477C59.4597 95.4324 58.9 95.0664 58.3833 94.5498L34.6167 70.7831C33.6694 69.8359 33.1743 68.6518 33.1312 67.231C33.0882 65.8102 33.5833 64.5831 34.6167 63.5498C35.5639 62.6025 36.7694 62.1289 38.2333 62.1289C39.6972 62.1289 40.9028 62.6025 41.85 63.5498L62 83.5706ZM62 52.5706L82.15 32.5498C83.0972 31.6025 84.2812 31.1074 85.7021 31.0644C87.1229 31.0213 88.35 31.5164 89.3833 32.5498C90.3305 33.497 90.8042 34.7025 90.8042 36.1664C90.8042 37.6303 90.3305 38.8359 89.3833 39.7831L65.6167 63.5498C65.1 64.0664 64.5403 64.4324 63.9375 64.6477C63.3347 64.863 62.6889 64.9706 62 64.9706C61.3111 64.9706 60.6653 64.863 60.0625 64.6477C59.4597 64.4324 58.9 64.0664 58.3833 63.5498L34.6167 39.7831C33.6694 38.8359 33.1743 37.6519 33.1312 36.231C33.0882 34.8102 33.5833 33.5831 34.6167 32.5498C35.5639 31.6025 36.7694 31.1289 38.2333 31.1289C39.6972 31.1289 40.9028 31.6025 41.85 32.5498L62 52.5706Z" fill="#583101"/>
</g>
</svg>
