<svg width="261" height="191" viewBox="0 0 261 191" fill="none" xmlns="http://www.w3.org/2000/svg">
<g clip-path="url(#clip0_8_5)">
<mask id="mask0_8_5" style="mask-type:luminance" maskUnits="userSpaceOnUse" x="0" y="0" width="261" height="191">
<path d="M261 0H0V191H261V0Z" fill="white"/>
</mask>
<g mask="url(#mask0_8_5)">
<path d="M88.6983 129.528C87.0409 114.459 93.0871 105.73 109.538 99.298C109.967 106.404 110.428 113.326 104.934 118.9C100.361 123.556 94.6831 126.466 88.6983 129.498" fill="#583101"/>
<path d="M84.8004 129.528C86.4578 114.459 80.4116 105.73 63.961 99.298C63.5313 106.404 63.0709 113.326 68.5647 118.9C73.1377 123.556 78.8156 126.466 84.8004 129.498" fill="#583101"/>
<path d="M88.6983 105.761C87.0409 90.7219 93.0871 81.9928 109.538 75.5608C109.967 82.6666 110.428 89.5581 104.934 95.1631C100.361 99.8186 94.6831 102.728 88.6983 105.761Z" fill="#583101"/>
<path d="M84.8004 105.761C86.4578 90.7219 80.4116 81.9928 63.961 75.5608C63.5313 82.6666 63.0709 89.5581 68.5647 95.1631C73.1377 99.8186 78.8156 102.728 84.8004 105.761Z" fill="#583101"/>
<path d="M80.0433 37.8876C75.4395 33.3546 70.4368 30.5367 64.452 27.5964L60.5235 12.7415L58.1296 13.2622L63.961 37.275C65.7717 46.5861 72.3397 52.7119 84.9539 57.398C85.2608 50.2922 85.6291 43.4008 80.0433 37.8876Z" fill="#583101"/>
<path d="M93.7623 37.8876C98.366 33.3546 103.369 30.5367 109.354 27.5964L113.282 12.7415L115.676 13.2622L109.845 37.275C108.034 46.5861 101.466 52.7119 88.8517 57.398C88.5448 50.2922 88.1765 43.4008 93.793 37.8876" fill="#583101"/>
<path d="M80.0433 61.6554C75.4395 57.1224 70.4368 54.3046 64.452 51.3642L60.5235 36.5093L58.1296 37.03L63.961 61.0429C65.7717 70.354 72.3397 76.4797 84.9539 81.1659C85.2608 74.06 85.6291 67.1686 80.0433 61.6554Z" fill="#583101"/>
<path d="M93.7623 61.6554C98.366 57.1224 103.369 54.3046 109.354 51.3642L113.282 36.5093L115.676 37.03L109.845 61.0429C108.034 70.354 101.466 76.4797 88.8517 81.1659C88.5448 74.06 88.1765 67.1686 93.793 61.6554" fill="#583101"/>
<path d="M86.9488 39.8172C86.9488 39.8172 79.9205 30.2917 79.3987 24.2579C78.1711 11.4245 86.8875 6.79956 86.8875 6.79956C86.8875 6.79956 95.5731 11.302 94.4375 24.166C93.8851 30.1692 86.9488 39.7866 86.9488 39.7866V39.8172Z" fill="#583101"/>
<path d="M108.003 135.715C108.003 164.476 84.647 187.753 55.8584 187.753C27.0698 187.753 3.68297 164.445 3.68297 135.715C3.68297 106.986 27.0392 83.6467 55.8277 83.6467V127.017C51.0092 127.017 47.142 130.907 47.142 135.685C47.142 140.463 51.0399 144.353 55.8277 144.353C60.6156 144.353 64.5134 140.463 64.5134 135.685H107.972L108.003 135.715Z" fill="#583101"/>
<path d="M240.958 163.924V168.09H244.427V179.606C244.519 180.984 244.611 181.536 244.856 182.21C246.145 185.732 250.043 185.854 251.179 185.854C255.476 185.854 257.071 183.741 257.593 181.903C257.931 180.831 257.931 179.514 257.931 178.32H254.156C254.186 178.657 254.463 180.28 253.327 181.168C252.928 181.474 252.498 181.505 252.284 181.505C252.099 181.505 251.731 181.505 251.24 181.199C250.718 180.801 250.565 180.433 250.565 179.085V168.059H256.55V163.894H250.565V157.554L244.427 159.698V163.894H240.958V163.924ZM222.881 174.644C222.881 172.378 223.219 170.234 225.091 168.733C225.521 168.396 226.472 167.692 228.007 167.692C230.278 167.692 231.997 169.192 232.702 171.306C233.101 172.378 233.132 173.45 233.132 174.644C233.132 176.237 232.948 177.768 232.089 179.147C231.199 180.556 229.756 181.505 228.099 181.505C227.331 181.505 226.411 181.291 225.736 180.954C222.728 179.392 222.881 175.287 222.881 174.644ZM216.528 174.736C216.528 179.422 218.799 183.404 223.219 185.119C225.275 185.885 227.147 185.977 227.945 185.977C230.585 185.977 232.457 185.211 233.347 184.813C237.368 182.914 238.503 180.004 238.964 178.35C239.301 177.095 239.424 176.023 239.424 174.736C239.424 170.142 237.368 166.038 232.979 164.231C231.475 163.587 229.787 163.281 228.16 163.281C226.135 163.281 220.088 163.802 217.51 169.652C216.559 171.796 216.497 173.848 216.497 174.706M196.579 181.138V185.364H209.5V181.138H205.878V174.675C206.093 173.297 206.216 172.684 206.492 172.01C206.738 171.398 207.044 170.938 207.566 170.418C209.316 168.58 211.771 168.58 212.6 168.58C213.367 168.58 214.103 168.61 214.84 168.702V163.649C213.551 163.434 213.121 163.342 212.385 163.342C211.341 163.342 208.855 163.649 206.922 165.823C206.492 166.283 206.062 166.926 205.387 168.151V163.863H196.64V168.029H199.617V181.168H196.609L196.579 181.138ZM167.514 181.138V185.364H179.453V181.138H176.445V174.491C176.537 172.96 176.629 171.52 177.397 170.234C178.256 168.917 179.729 167.906 181.325 167.906C182.399 167.906 183.074 168.243 183.473 168.519C184.517 169.131 184.885 170.05 184.947 172.286V181.138H182.123V185.334H193.939V181.138H191.238V170.846C191.238 170.387 191.269 168.702 190.625 167.171C189.52 164.598 186.45 163.373 183.565 163.373C181.601 163.373 179.453 163.955 177.98 165.211C177.458 165.67 177.09 166.16 176.66 166.742V154.674H167.606V158.779H170.399V181.168H167.575L167.514 181.138ZM160.393 166.65C159.933 166.007 159.35 165.211 158.767 164.721C157.048 163.434 154.409 163.342 153.979 163.342C149.774 163.342 146.429 165.915 145.078 169.836C144.403 171.857 144.342 173.695 144.342 174.461C144.342 175.624 144.373 179.177 146.674 182.148C147.534 183.251 148.424 183.864 148.853 184.17C150.787 185.395 153.181 185.824 155.606 185.824C161.652 185.824 164.291 182.424 164.966 180.127C165.212 179.33 165.212 178.84 165.273 177.983H159.902C159.78 178.503 159.595 179.055 159.35 179.576C158.368 181.352 156.465 181.536 155.79 181.536C155.145 181.536 153.825 181.413 152.659 180.341C152.045 179.79 151.708 179.085 151.585 178.84C150.787 177.217 150.726 174.889 150.726 174.461C150.726 171.336 152.107 167.661 155.698 167.661C157.294 167.661 158.245 168.396 158.705 168.794C159.749 169.774 159.872 170.877 159.994 172.347H165.181V163.894H160.363V166.65H160.393ZM135.564 166.007C134.367 164.751 133.876 164.414 133.017 164.077C131.605 163.495 129.917 163.434 129.395 163.434C126.94 163.434 124.116 164.414 122.735 166.589C122.397 167.14 121.845 168.304 121.845 170.05C121.814 173.358 123.686 174.797 124.853 175.41C125.743 175.869 127.124 176.237 127.339 176.298L131.206 177.125C132.894 177.554 133.815 177.891 134.244 178.657C134.429 179.055 134.459 179.422 134.459 179.545C134.459 179.79 134.428 180.311 134.03 180.801C133.631 181.26 132.833 181.75 131.359 181.75C128.996 181.75 127.615 180.494 127.185 179.698C126.878 179.147 126.786 178.442 126.756 177.83H121.814V185.334H126.664V182.883C126.664 182.883 127.523 183.986 128.229 184.568C129.917 185.854 132.28 185.854 132.863 185.854C135.748 185.854 137.283 185.058 138.296 184.262C140.628 182.455 140.874 179.974 140.874 178.932C140.874 175.686 138.725 174.032 137.774 173.542C136.822 173.021 135.319 172.623 135.104 172.592L130.715 171.612C129.825 171.306 128.689 171.061 128.229 170.142C128.137 169.989 128.014 169.774 128.014 169.376C128.014 168.825 128.26 168.519 128.413 168.335C129.057 167.477 130.162 167.355 131.237 167.355C131.697 167.355 133.262 167.324 134.428 168.427C135.196 169.192 135.349 169.866 135.411 170.908H140.198V163.832H135.564V165.976V166.007Z" fill="#583101"/>
<path d="M185.806 137.369C185.99 134.797 186.788 133.296 187.555 132.469C188.722 131.182 190.348 131.06 190.901 131.06C192.098 131.06 193.172 131.489 194.093 132.224C195.29 133.173 196.333 134.674 196.333 138.013C196.333 138.839 196.364 141.259 194.614 143.158C193.264 144.567 191.729 144.751 190.962 144.751C189.489 144.751 188.507 144.108 188.077 143.771C185.468 141.749 185.714 138.288 185.806 137.369ZM196.088 130.08C195.873 129.835 195.013 128.885 194.062 128.181C192.036 126.772 189.98 126.68 189.151 126.68C186.236 126.68 184.118 127.874 183.32 128.518C181.601 129.835 179.484 132.683 179.484 137.859C179.484 141.933 180.68 145.976 184.456 147.967C185.775 148.702 187.279 149.069 188.844 149.069C191.024 149.069 193.663 148.242 195.259 146.711C195.903 146.129 196.517 145.271 196.64 145.088V148.61H205.264V144.353H202.349V117.859H193.08V121.994H196.088V130.018V130.08ZM149.651 144.414V148.61H161.989V144.414H159.104V136.604C159.289 135.072 159.442 133.694 160.424 132.622C161.682 131.305 163.401 131.09 164.076 131.09C164.414 131.09 165.365 131.121 166.225 131.642C167.698 132.469 167.851 133.847 167.944 135.317V144.414H165.059V148.671H177.212V144.414H174.235V133.939C174.235 133.633 174.113 131.611 173.468 130.294C172.946 129.253 171.657 127.691 168.956 126.956C167.698 126.649 166.716 126.619 166.163 126.619C164.046 126.619 161.897 127.262 160.363 128.579C159.688 129.222 159.319 129.743 158.767 130.509V127.139H149.651V131.305H152.782V144.414H149.59H149.651ZM120.74 127.17V131.366H123.564V141.596C123.594 142.821 123.656 143.771 124.178 144.935C125.252 147.599 128.045 149.131 130.93 149.131C131.758 149.131 134.797 148.916 136.853 146.895C137.252 146.497 137.528 146.068 138.173 145.149V148.61H146.92V144.353H144.096V127.17H134.674V131.366H137.743V139.575C137.712 140.402 137.712 142.576 135.625 143.893C134.674 144.506 133.845 144.567 133.385 144.567C132.495 144.567 131.789 144.261 131.544 144.108C130.04 143.342 129.917 142.055 129.794 140.432V127.17H120.771H120.74Z" fill="#583101"/>
<path d="M194.185 107.66V111.856H206.523V107.66H203.638V99.8493C203.822 98.3178 203.975 96.9396 204.957 95.8676C206.216 94.5505 207.935 94.3361 208.61 94.3361C208.947 94.3361 209.899 94.3668 210.758 94.8874C212.201 95.6838 212.385 97.0927 212.477 98.5629V107.66H209.592V111.886H221.746V107.66H218.769V97.1846C218.769 96.8783 218.646 94.8568 218.001 93.5398C217.48 92.4984 216.19 90.9364 213.49 90.2013C212.231 89.895 211.249 89.8643 210.697 89.8643C208.579 89.8643 206.431 90.5075 204.896 91.8246C204.221 92.4678 203.853 92.9885 203.3 93.7542V90.385H194.185V94.5505H197.315V107.69H194.123L194.185 107.66ZM173.898 107.66V111.886H186.819V107.66H183.197V101.166C183.412 99.788 183.535 99.2061 183.811 98.5016C184.057 97.889 184.363 97.4296 184.885 96.9089C186.635 95.0712 189.09 95.0712 189.919 95.0712C190.686 95.0712 191.423 95.1018 192.159 95.1937V90.14C190.87 89.9256 190.44 89.8337 189.704 89.8337C188.66 89.8337 186.174 90.14 184.241 92.3146C183.811 92.7741 183.381 93.4173 182.706 94.6118V90.3238H173.959V94.4893H176.936V107.629H173.928L173.898 107.66ZM154.9 101.136C154.9 98.8692 155.237 96.7252 157.079 95.2244C157.508 94.8874 158.46 94.183 159.994 94.183C162.266 94.183 163.984 95.6838 164.69 97.7972C165.089 98.8692 165.12 99.9412 165.12 101.136C165.12 102.728 164.936 104.26 164.076 105.638C163.186 107.047 161.744 107.996 160.087 107.996C159.319 107.996 158.399 107.782 157.723 107.445C154.716 105.914 154.9 101.779 154.9 101.136ZM148.547 101.228C148.547 105.914 150.818 109.895 155.237 111.611C157.294 112.376 159.166 112.468 159.964 112.468C162.573 112.468 164.475 111.703 165.396 111.304C169.417 109.405 170.552 106.496 171.013 104.842C171.35 103.586 171.473 102.514 171.473 101.228C171.473 96.6333 169.417 92.529 165.028 90.722C163.524 90.0787 161.836 89.7725 160.209 89.7725C158.184 89.7725 152.137 90.2931 149.559 96.1432C148.608 98.2872 148.516 100.339 148.516 101.197M120.679 107.843V111.856H132.311V107.905H129.702V104.995L133.723 101.901L137.467 107.905H134.797V111.856H146.582V107.905H144.526L137.958 98.5629L143.237 94.3974H145.508V90.4157H133.139V94.2749H136.055L129.641 99.3898V81.1352H120.679V85.3007H123.564V107.874H120.648L120.679 107.843Z" fill="#583101"/>
</g>
</g>
<defs>
<clipPath id="clip0_8_5">
<rect width="261" height="191" fill="white"/>
</clipPath>
</defs>
</svg>
