<svg width="161" height="120" viewBox="0 0 161 120" fill="none" xmlns="http://www.w3.org/2000/svg">
<mask id="mask0_37_346" style="mask-type:luminance" maskUnits="userSpaceOnUse" x="0" y="0" width="161" height="120">
<path d="M161 0H0V119.705H161V0Z" fill="white"/>
</mask>
<g mask="url(#mask0_37_346)">
<path d="M54.7143 81.1797C53.6919 71.7353 57.4216 66.2645 67.5693 62.2334C67.8343 66.6868 68.1183 71.0251 64.7294 74.5187C61.9085 77.4365 58.4061 79.2601 54.7143 81.1605" fill="#2D2D2D"/>
<path d="M52.3099 81.1797C53.3322 71.7353 49.6025 66.2645 39.4549 62.2334C39.1898 66.6868 38.9058 71.0251 42.2947 74.5187C45.1156 77.4365 48.6181 79.2601 52.3099 81.1605" fill="#2D2D2D"/>
<path d="M54.7143 66.2835C53.6919 56.8584 57.4216 51.3876 67.5693 47.3564C67.8343 51.8099 68.1183 56.1289 64.7294 59.6418C61.9085 62.5595 58.4061 64.3831 54.7143 66.2835Z" fill="#2D2D2D"/>
<path d="M52.3099 66.2835C53.3322 56.8584 49.6025 51.3876 39.4549 47.3564C39.1898 51.8099 38.9058 56.1289 42.2947 59.6418C45.1156 62.5595 48.6181 64.3831 52.3099 66.2835Z" fill="#2D2D2D"/>
<path d="M49.3754 23.7451C46.5355 20.9041 43.4496 19.1381 39.7578 17.2953L37.3344 7.98535L35.8577 8.31168L39.4549 23.3612C40.5719 29.1967 44.6234 33.0359 52.4045 35.9728C52.5939 31.5194 52.821 27.2003 49.3754 23.7451Z" fill="#2D2D2D"/>
<path d="M57.8381 23.7451C60.6779 20.9041 63.7639 19.1381 67.4557 17.2953L69.879 7.98535L71.3557 8.31168L67.7586 23.3612C66.6416 29.1967 62.5901 33.0359 54.8089 35.9728C54.6196 31.5194 54.3924 27.2003 57.857 23.7451" fill="#2D2D2D"/>
<path d="M49.3754 38.6416C46.5355 35.8006 43.4496 34.0346 39.7578 32.1918L37.3344 22.8818L35.8577 23.2082L39.4549 38.2577C40.5719 44.0932 44.6234 47.9324 52.4045 50.8693C52.5939 46.4159 52.821 42.0968 49.3754 38.6416Z" fill="#2D2D2D"/>
<path d="M57.8381 38.6416C60.6779 35.8006 63.7639 34.0346 67.4557 32.1918L69.879 22.8818L71.3557 23.2082L67.7586 38.2577C66.6416 44.0932 62.5901 47.9324 54.8089 50.8693C54.6196 46.4159 54.3924 42.0968 57.857 38.6416" fill="#2D2D2D"/>
<path d="M53.6351 24.9548C53.6351 24.9548 49.2996 18.9849 48.9778 15.2033C48.2205 7.16028 53.5973 4.26172 53.5973 4.26172C53.5973 4.26172 58.9551 7.0835 58.2546 15.1457C57.9138 18.9081 53.6351 24.9356 53.6351 24.9356V24.9548Z" fill="#2D2D2D"/>
<path d="M66.6227 85.0567C66.6227 103.082 52.2152 117.67 34.4567 117.67C16.6983 117.67 2.27188 103.062 2.27188 85.0567C2.27188 67.051 16.6793 52.4238 34.4378 52.4238V79.6051C31.4654 79.6051 29.08 82.0429 29.08 85.0375C29.08 88.032 31.4844 90.4699 34.4378 90.4699C37.3912 90.4699 39.7956 88.032 39.7956 85.0375H66.6037L66.6227 85.0567Z" fill="#2D2D2D"/>
<path d="M148.637 102.737V105.347H150.777V112.565C150.833 113.429 150.89 113.774 151.042 114.196C151.837 116.404 154.241 116.481 154.942 116.481C157.592 116.481 158.577 115.156 158.899 114.005C159.107 113.333 159.107 112.507 159.107 111.759H156.778C156.797 111.97 156.967 112.987 156.267 113.544C156.021 113.736 155.756 113.755 155.623 113.755C155.51 113.755 155.282 113.755 154.98 113.563C154.658 113.313 154.563 113.083 154.563 112.239V105.328H158.255V102.717H154.563V98.7439L150.777 100.088V102.717H148.637V102.737ZM137.486 109.455C137.486 108.035 137.694 106.691 138.849 105.75C139.114 105.539 139.701 105.098 140.648 105.098C142.049 105.098 143.109 106.038 143.544 107.363C143.791 108.035 143.81 108.706 143.81 109.455C143.81 110.453 143.696 111.413 143.166 112.277C142.617 113.16 141.727 113.755 140.705 113.755C140.231 113.755 139.663 113.621 139.247 113.409C137.391 112.43 137.486 109.858 137.486 109.455ZM133.567 109.513C133.567 112.45 134.968 114.945 137.694 116.02C138.963 116.5 140.118 116.558 140.61 116.558C142.238 116.558 143.393 116.078 143.942 115.828C146.422 114.638 147.123 112.814 147.407 111.778C147.615 110.991 147.691 110.319 147.691 109.513C147.691 106.633 146.422 104.061 143.715 102.929C142.787 102.525 141.746 102.333 140.742 102.333C139.493 102.333 135.763 102.66 134.173 106.326C133.586 107.67 133.548 108.956 133.548 109.494M121.261 113.525V116.174H129.232V113.525H126.998V109.474C127.13 108.61 127.206 108.227 127.376 107.804C127.528 107.42 127.717 107.132 128.039 106.806C129.118 105.654 130.633 105.654 131.144 105.654C131.617 105.654 132.072 105.674 132.526 105.731V102.564C131.731 102.429 131.466 102.372 131.011 102.372C130.368 102.372 128.834 102.564 127.641 103.927C127.376 104.215 127.111 104.618 126.695 105.386V102.698H121.299V105.309H123.135V113.544H121.28L121.261 113.525ZM103.332 113.525V116.174H110.697V113.525H108.842V109.359C108.898 108.399 108.955 107.497 109.429 106.691C109.959 105.866 110.867 105.232 111.852 105.232C112.514 105.232 112.931 105.443 113.177 105.616C113.821 106 114.048 106.576 114.086 107.977V113.525H112.344V116.154H119.633V113.525H117.967V107.075C117.967 106.787 117.986 105.731 117.588 104.771C116.907 103.159 115.014 102.391 113.234 102.391C112.022 102.391 110.697 102.756 109.788 103.543C109.466 103.831 109.239 104.138 108.974 104.503V96.9395H103.389V99.5117H105.112V113.544H103.37L103.332 113.525ZM98.94 104.445C98.6561 104.042 98.2963 103.543 97.9366 103.236C96.8764 102.429 95.2482 102.372 94.9832 102.372C92.3895 102.372 90.3259 103.984 89.4928 106.441C89.0763 107.708 89.0385 108.86 89.0385 109.34C89.0385 110.069 89.0574 112.296 90.4773 114.158C91.0074 114.849 91.5565 115.233 91.8215 115.425C93.0142 116.193 94.491 116.462 95.9866 116.462C99.7163 116.462 101.344 114.331 101.761 112.891C101.912 112.392 101.912 112.085 101.95 111.547H98.6371C98.5614 111.874 98.4478 112.219 98.2963 112.546C97.6905 113.659 96.5167 113.774 96.1002 113.774C95.7026 113.774 94.8885 113.697 94.1691 113.026C93.7905 112.68 93.5822 112.239 93.5065 112.085C93.0142 111.068 92.9764 109.609 92.9764 109.34C92.9764 107.382 93.8283 105.078 96.0434 105.078C97.0279 105.078 97.6148 105.539 97.8988 105.789C98.5425 106.403 98.6182 107.094 98.6939 108.015H101.893V102.717H98.9211V104.445H98.94ZM83.6238 104.042C82.8855 103.255 82.5826 103.044 82.0525 102.833C81.1816 102.468 80.1403 102.429 79.8185 102.429C78.3039 102.429 76.5621 103.044 75.7102 104.407C75.5019 104.752 75.1611 105.482 75.1611 106.576C75.1422 108.649 76.2971 109.551 77.0165 109.935C77.5655 110.223 78.4175 110.453 78.55 110.492L80.9355 111.01C81.9767 111.279 82.5447 111.49 82.8098 111.97C82.9233 112.219 82.9423 112.45 82.9423 112.526C82.9423 112.68 82.9233 113.006 82.6772 113.313C82.4311 113.601 81.9389 113.909 81.0301 113.909C79.5723 113.909 78.7204 113.122 78.4553 112.622C78.266 112.277 78.2092 111.835 78.1903 111.451H75.1422V116.154H78.1335V114.619C78.1335 114.619 78.6636 115.31 79.099 115.675C80.1403 116.481 81.5981 116.481 81.9578 116.481C83.7374 116.481 84.684 115.982 85.3088 115.483C86.7477 114.35 86.8991 112.795 86.8991 112.143C86.8991 110.108 85.5739 109.071 84.987 108.764C84.4001 108.438 83.4724 108.188 83.3399 108.169L80.6325 107.555C80.0835 107.363 79.383 107.209 79.099 106.633C79.0422 106.537 78.9665 106.403 78.9665 106.153C78.9665 105.808 79.118 105.616 79.2126 105.501C79.6102 104.963 80.2918 104.887 80.9544 104.887C81.2384 104.887 82.2039 104.867 82.9233 105.558C83.3967 106.038 83.4913 106.461 83.5292 107.113H86.4826V102.679H83.6238V104.023V104.042Z" fill="#2D2D2D"/>
<path d="M114.616 86.093C114.73 84.4805 115.222 83.5399 115.695 83.0216C116.415 82.2154 117.418 82.1386 117.759 82.1386C118.497 82.1386 119.16 82.4074 119.728 82.8681C120.466 83.4631 121.11 84.4037 121.11 86.4961C121.11 87.0144 121.129 88.5308 120.05 89.721C119.217 90.604 118.27 90.7191 117.797 90.7191C116.888 90.7191 116.282 90.316 116.017 90.1049C114.408 88.838 114.559 86.6688 114.616 86.093ZM120.958 81.5244C120.826 81.3708 120.296 80.7757 119.709 80.3342C118.459 79.4512 117.191 79.3936 116.68 79.3936C114.881 79.3936 113.575 80.1423 113.082 80.5454C112.022 81.3708 110.716 83.156 110.716 86.4001C110.716 88.9531 111.454 91.487 113.783 92.7347C114.597 93.1954 115.525 93.4257 116.49 93.4257C117.834 93.4257 119.463 92.9075 120.447 91.9477C120.845 91.583 121.223 91.0455 121.299 90.9303V93.1378H126.619V90.4696H124.82V73.8652H119.103V76.4567H120.958V81.486V81.5244ZM92.3137 90.508V93.1378H99.9245V90.508H98.1449V85.6131C98.2585 84.6533 98.3531 83.7895 98.959 83.1176C99.7352 82.2922 100.795 82.1578 101.212 82.1578C101.42 82.1578 102.007 82.177 102.537 82.5033C103.446 83.0216 103.541 83.8854 103.597 84.8068V90.508H101.818V93.1762H109.315V90.508H107.478V83.943C107.478 83.7511 107.403 82.4842 107.005 81.6587C106.683 81.0061 105.888 80.0271 104.222 79.5664C103.446 79.3744 102.84 79.3552 102.499 79.3552C101.193 79.3552 99.8677 79.7583 98.9211 80.5838C98.5046 80.9869 98.2774 81.3132 97.9366 81.7931V79.6816H92.3137V82.2922H94.2448V90.508H92.2759H92.3137ZM74.4796 79.7008V82.3306H76.2213V88.742C76.2403 89.5098 76.2781 90.1049 76.6 90.8343C77.2626 92.5044 78.9854 93.4641 80.7651 93.4641C81.2762 93.4641 83.1505 93.3298 84.419 92.0628C84.6651 91.8133 84.8355 91.5446 85.2331 90.9687V93.1378H90.6288V90.4696H88.887V79.7008H83.0748V82.3306H84.968V87.4751C84.9491 87.9933 84.9491 89.3562 83.6617 90.1817C83.0748 90.5656 82.5636 90.604 82.2796 90.604C81.7306 90.604 81.2952 90.412 81.1437 90.316C80.216 89.8361 80.1403 89.0299 80.0646 88.0125V79.7008H74.4985H74.4796Z" fill="#2D2D2D"/>
<path d="M119.784 67.4732V70.103H127.395V67.4732H125.616V62.5782C125.729 61.6185 125.824 60.7546 126.43 60.0828C127.206 59.2574 128.266 59.123 128.683 59.123C128.891 59.123 129.478 59.1422 130.008 59.4685C130.898 59.9676 131.011 60.8506 131.068 61.772V67.4732H129.288V70.1222H136.786V67.4732H134.949V60.9082C134.949 60.7163 134.873 59.4493 134.476 58.6239C134.154 57.9713 133.359 56.9923 131.693 56.5316C130.917 56.3396 130.311 56.3204 129.97 56.3204C128.664 56.3204 127.338 56.7235 126.392 57.5489C125.975 57.9521 125.748 58.2784 125.407 58.7583V56.6467H119.784V59.2574H121.716V67.4924H119.747L119.784 67.4732ZM107.27 67.4732V70.1222H115.241V67.4732H113.007V63.4037C113.139 62.5398 113.215 62.1751 113.385 61.7336C113.537 61.3497 113.726 61.0618 114.048 60.7354C115.127 59.5837 116.642 59.5837 117.153 59.5837C117.626 59.5837 118.081 59.6029 118.535 59.6605V56.4932C117.74 56.3588 117.475 56.3012 117.02 56.3012C116.377 56.3012 114.843 56.4932 113.65 57.8561C113.385 58.144 113.12 58.5471 112.704 59.2958V56.6083H107.308V59.219H109.145V67.454H107.289L107.27 67.4732ZM95.5512 63.3845C95.5512 61.964 95.7594 60.6203 96.8954 59.6797C97.1604 59.4685 97.7473 59.027 98.6939 59.027C100.095 59.027 101.155 59.9676 101.591 61.2921C101.837 61.964 101.856 62.6358 101.856 63.3845C101.856 64.3826 101.742 65.3424 101.212 66.2063C100.663 67.0893 99.7731 67.6843 98.7507 67.6843C98.2774 67.6843 97.7094 67.55 97.2929 67.3388C95.4376 66.379 95.5512 63.7876 95.5512 63.3845ZM91.6322 63.4421C91.6322 66.379 93.0332 68.8745 95.7594 69.9494C97.0279 70.4293 98.1828 70.4869 98.675 70.4869C100.284 70.4869 101.458 70.007 102.026 69.7575C104.506 68.5673 105.207 66.7437 105.491 65.7072C105.699 64.9201 105.775 64.2483 105.775 63.4421C105.775 60.5627 104.506 57.9904 101.799 56.8579C100.871 56.4548 99.8299 56.2628 98.8265 56.2628C97.5769 56.2628 93.8473 56.5892 92.257 60.2556C91.6701 61.5993 91.6133 62.8854 91.6133 63.4229M74.4417 67.5883V70.103H81.617V67.6267H80.0078V65.8031L82.4879 63.8644L84.7976 67.6267H83.1505V70.103H90.4205V67.6267H89.1521L85.1006 61.772L88.3569 59.1614H89.7579V56.6659H82.1282V59.0846H83.9268L79.9699 62.2903V50.8496H74.4417V53.4602H76.2213V67.6075H74.4228L74.4417 67.5883Z" fill="#2D2D2D"/>
</g>
</svg>
