<svg width="50" height="50" viewBox="0 0 50 50" fill="none" xmlns="http://www.w3.org/2000/svg">
<mask id="mask0_125_111" style="mask-type:alpha" maskUnits="userSpaceOnUse" x="0" y="0" width="50" height="50">
<rect width="50" height="50" fill="#D9D9D9"/>
</mask>
<g mask="url(#mask0_125_111)">
<path d="M8.33333 37.5C7.74306 37.5 7.24826 37.3003 6.84896 36.901C6.44965 36.5017 6.25 36.0069 6.25 35.4167C6.25 34.8264 6.44965 34.3316 6.84896 33.9323C7.24826 33.533 7.74306 33.3333 8.33333 33.3333H41.6667C42.2569 33.3333 42.7517 33.533 43.151 33.9323C43.5503 34.3316 43.75 34.8264 43.75 35.4167C43.75 36.0069 43.5503 36.5017 43.151 36.901C42.7517 37.3003 42.2569 37.5 41.6667 37.5H8.33333ZM8.33333 27.0833C7.74306 27.0833 7.24826 26.8837 6.84896 26.4844C6.44965 26.0851 6.25 25.5903 6.25 25C6.25 24.4097 6.44965 23.9149 6.84896 23.5156C7.24826 23.1163 7.74306 22.9167 8.33333 22.9167H41.6667C42.2569 22.9167 42.7517 23.1163 43.151 23.5156C43.5503 23.9149 43.75 24.4097 43.75 25C43.75 25.5903 43.5503 26.0851 43.151 26.4844C42.7517 26.8837 42.2569 27.0833 41.6667 27.0833H8.33333ZM8.33333 16.6667C7.74306 16.6667 7.24826 16.467 6.84896 16.0677C6.44965 15.6684 6.25 15.1736 6.25 14.5833C6.25 13.9931 6.44965 13.4983 6.84896 13.099C7.24826 12.6997 7.74306 12.5 8.33333 12.5H41.6667C42.2569 12.5 42.7517 12.6997 43.151 13.099C43.5503 13.4983 43.75 13.9931 43.75 14.5833C43.75 15.1736 43.5503 15.6684 43.151 16.0677C42.7517 16.467 42.2569 16.6667 41.6667 16.6667H8.33333Z" fill="#FFEDD8"/>
</g>
</svg>
