<svg width="96" height="96" viewBox="0 0 96 96" fill="none" xmlns="http://www.w3.org/2000/svg">
<path d="M49.5 8C28.2365 8 11 25.2365 11 46.5C11 67.7635 28.2365 85 49.5 85C70.7635 85 88 67.7635 88 46.5C88 25.2365 70.7635 8 49.5 8ZM49.5 15.7C66.5093 15.7 80.3 29.4907 80.3 46.5C80.3 63.5093 66.5093 77.3 49.5 77.3C46.6679 77.3 43.9387 76.8879 41.3338 76.1721C42.1531 74.5214 42.8881 72.7818 43.2889 71.2393C43.7316 69.5453 45.5447 62.6369 45.5447 62.6369C46.7228 64.8853 50.166 66.7952 53.8312 66.7952C64.7383 66.7952 72.6 56.7631 72.6 44.2968C72.6 32.3425 62.8481 23.4 50.2971 23.4C34.6853 23.4 26.4 33.878 26.4 45.2894C26.4 50.5947 29.223 57.1998 33.7391 59.3058C34.4244 59.6253 34.7919 59.4867 34.9497 58.8245C35.0729 58.3202 35.684 55.8623 35.9573 54.7188C36.0459 54.3569 36.0056 54.0392 35.7092 53.6812C34.2154 51.8678 33.0172 48.5392 33.0172 45.4322C33.0172 37.4512 39.0586 29.7314 49.3496 29.7314C58.2354 29.7314 64.4563 35.7885 64.4563 44.4472C64.4563 54.23 59.5163 61.0052 53.0868 61.0052C49.5371 61.0052 46.8707 58.0743 47.7254 54.4707C48.7456 50.1703 50.7257 45.5275 50.7257 42.4244C50.7257 39.6486 49.2415 37.3337 46.1538 37.3337C42.5233 37.3337 39.6043 41.0846 39.6043 46.1165C39.6043 49.3197 40.6871 51.4854 40.6871 51.4854C40.6871 51.4854 37.1044 66.6426 36.4461 69.4646C36.1198 70.8574 36.0109 72.5073 36.0024 74.1568C25.7677 69.15 18.7 58.6608 18.7 46.5C18.7 29.4907 32.4907 15.7 49.5 15.7Z" fill="#583101"/>
</svg>
