<svg width="92" height="96" viewBox="0 0 92 96" fill="none" xmlns="http://www.w3.org/2000/svg">
<path d="M46 8C23 8 23 32 23 32V36C23 36 22.9138 35.9922 22.7604 35.9922C21.4571 35.9922 15.3333 36.2741 15.3333 41.5781C15.3333 47.7581 21.8379 48 22.8653 48H23C23 52 16.6661 56.6816 12.5108 57.7656C8.63909 59.3336 7.71651 62.0111 7.66668 64.0391C7.63601 65.2511 7.91764 66.2294 8.07098 66.6094C9.51614 70.1494 13.8085 71.9766 18.0137 71.9766C18.1594 77.7326 22.1402 80 24.8044 80C27.848 80 31.071 78.4453 31.071 78.4453C31.2281 78.5813 36.1292 84 46 84C55.8709 84 60.7755 78.5813 60.9365 78.4453C60.9365 78.4453 64.1482 80 67.1957 80C69.8598 80 73.8407 77.7326 73.9863 71.9766C78.1915 71.9766 82.4839 70.1494 83.9291 66.6094C84.0824 66.2294 84.364 65.2511 84.3334 64.0391C84.2835 62.0111 83.3609 59.3336 79.4893 57.7656C75.3339 56.6816 69 52 69 48H69.1348C70.1621 48 76.6667 47.7581 76.6667 41.5781C76.6667 36.2741 70.5429 35.9922 69.2396 35.9922C69.0863 35.9922 69 36 69 36V32C69 32 69 8 46 8ZM46 16C60.0032 16 61.2759 28.292 61.3334 32V48C61.3334 55.456 68.0301 61.1886 73.6345 63.9766H66.5143L66.3197 71.7734C66.3197 71.8134 66.3122 71.8506 66.3122 71.8906C65.5379 71.7266 64.6468 71.4195 64.1485 71.1875L59.821 69.1016L56.1074 72.2344L55.8005 72.5L55.5609 72.7344C55.2312 73.0664 52.1295 76 46 76C39.8705 76 36.7652 73.0704 36.4317 72.7344L36.1397 72.4375L35.8851 72.2266L32.1865 69.1719L27.8965 71.1641C27.3675 71.4121 26.466 71.7266 25.6878 71.8906C25.684 71.8546 25.6804 71.8134 25.6804 71.7734L25.4857 63.9844H18.3656C23.9699 61.1924 30.6667 55.456 30.6667 48V32C30.6667 29.328 31.4065 16 46 16Z" fill="#583101"/>
</svg>
